<?xml version="1.0" encoding="utf-8"?>
<!-- Generator: Adobe Illustrator 23.1.0, SVG Export Plug-In . SVG Version: 6.00 Build 0)  -->
<svg version="1.1" id="Layer_1" xmlns="http://www.w3.org/2000/svg" xmlns:xlink="http://www.w3.org/1999/xlink" x="0px" y="0px"
	 viewBox="0 0 612 612" style="enable-background:new 0 0 612 612;" xml:space="preserve">
<style type="text/css">
	.st0{fill:#4474BA;}
	.st1{fill:#FFFFFF;}
</style>
<circle class="st0" cx="306" cy="306" r="306"/>
<g id="Layer_4">
	<path class="st1" d="M493.94,237.77l-45.38-20.33l-47.61,21.22l12.4,5.56c25.98,11.49,24.09,7.34-0.12,17.82l-102.07,44.14
		c-3.38,1.46-7.21,1.48-10.6,0.04l-101.01-42.78c-25-10.28-25.05-9.8-0.13-20.09l98.38-43.22c5.5-2.42,11.77-2.39,17.26,0.06
		l29.42,13.18L314.65,227c-0.52,0.24-0.92,0.66-1.13,1.19l-13.73,35.1c-0.66,1.68,1.06,3.32,2.71,2.58l79.61-35.65l47.98-21.05
		l-108.2-48.47c-9.6-4.3-20.58-4.34-30.21-0.11l-172.24,75.66c-15.37,6.75-15.23,28.61,0.23,35.16l87.04,36.86l-16.24,10.38v77.87
		c0,5.66,3.38,10.78,8.59,13l104.41,44.52c1.62,0.69,3.45,0.7,5.08,0.01l102.28-42.91c6.81-2.86,11.24-9.52,11.24-16.9v-60.67
		l-38.69,16.42v29.56c0,0.9-0.54,1.71-1.37,2.06l-73.99,31.25c-1.11,0.47-2.37,0.47-3.48,0l-74.39-31.41
		c-0.59-0.25-0.97-0.83-0.97-1.47v-62.2l67.34,28.52c5.94,2.51,12.64,2.49,18.56-0.07l129.56-56.03v113.17
		c0,1.11,0.9,2.01,2.01,2.01h18.19c1.09,0,1.98-0.89,1.98-1.98v-63.66c0-0.86-0.7-1.56-1.56-1.56h-10.88
		c-0.53,0-0.97-0.43-0.97-0.97v-50.81l40.35-17.45C507.35,263.08,507.47,243.83,493.94,237.77z"/>
</g>
</svg>
